HIERARCHY
ROOT Hips
{
    OFFSET 0.000000 0.000000 0.000000
    CHANNELS 6 Xposition Yposition Zposition Zrotation Xrotation Yrotation
    JOINT Spine
    {
        OFFSET -0.000000 7.315584 0.000000
        CHANNELS 3 Zrotation Xrotation Yrotation
        JOINT Spine1
        {
            OFFSET -0.000000 21.742830 0.000000
            CHANNELS 3 Zrotation Xrotation Yrotation
            JOINT Neck
            {
                OFFSET -0.000000 21.653538 1.968503
                CHANNELS 3 Zrotation Xrotation Yrotation
                JOINT Head
                {
                    OFFSET -0.000000 12.490022 -1.784289
                    CHANNELS 3 Zrotation Xrotation Yrotation
                    End Site
                    {
                        OFFSET -0.000000 22.303610 0.000000
                    }
                }
            }
            JOINT LeftShoulder
            {
                OFFSET 3.565460 21.440739 -0.045508
                CHANNELS 3 Zrotation Xrotation Yrotation
                JOINT LeftArm
                {
                    OFFSET 5.865323 0.000000 0.000000
                    CHANNELS 3 Zrotation Xrotation Yrotation
                    JOINT LeftForeArm
                    {
                        OFFSET 30.083149 0.000000 0.000000
                        CHANNELS 3 Zrotation Xrotation Yrotation
                        JOINT LeftHand
                        {
                            OFFSET 21.313328 0.000000 0.000000
                            CHANNELS 3 Zrotation Xrotation Yrotation
                            End Site
                            {
                                OFFSET 13.382167 0.000000 0.000000
                            }
                        }
                    }
                }
            }
            JOINT RightShoulder
            {
                OFFSET -3.556053 21.440739 -0.045508
                CHANNELS 3 Zrotation Xrotation Yrotation
                JOINT RightArm
                {
                    OFFSET -5.865323 0.000000 0.000000
                    CHANNELS 3 Zrotation Xrotation Yrotation
                    JOINT RightForeArm
                    {
                        OFFSET -30.083149 0.000000 0.000000
                        CHANNELS 3 Zrotation Xrotation Yrotation
                        JOINT RightHand
                        {
                            OFFSET -21.313328 0.000000 0.000000
                            CHANNELS 3 Zrotation Xrotation Yrotation
                            End Site
                            {
                                OFFSET -13.382167 0.000000 0.000000
                            }
                        }
                    }
                }
            }
        }
    }
    JOINT LeftUpLeg
    {
        OFFSET 8.921444 0.000000 0.000000
        CHANNELS 3 Zrotation Xrotation Yrotation
        JOINT LeftLeg
        {
            OFFSET -0.000000 -39.632927 0.000000
            CHANNELS 3 Zrotation Xrotation Yrotation
            JOINT LeftFoot
            {
                OFFSET -0.000000 -38.058365 0.000000
                CHANNELS 3 Zrotation Xrotation Yrotation
                JOINT LeftToeBase
                {
                    OFFSET -0.000000 -5.798938 13.382167
                    CHANNELS 3 Zrotation Xrotation Yrotation
                    End Site
                    {
                        OFFSET -0.000000 0.000000 3.568577
                    }
                }
            }
        }
    }
    JOINT RightUpLeg
    {
        OFFSET -8.921444 0.000000 0.000000
        CHANNELS 3 Zrotation Xrotation Yrotation
        JOINT RightLeg
        {
            OFFSET -0.000000 -39.632927 0.000000
            CHANNELS 3 Zrotation Xrotation Yrotation
            JOINT RightFoot
            {
                OFFSET -0.000000 -38.058365 0.000000
                CHANNELS 3 Zrotation Xrotation Yrotation
                JOINT RightToeBase
                {
                    OFFSET -0.000000 -5.798938 13.382167
                    CHANNELS 3 Zrotation Xrotation Yrotation
                    End Site
                    {
                        OFFSET -0.000000 0.000000 3.568577
                    }
                }
            }
        }
    }
}
MOTION
Frames:    12
Frame Time:    0.004000
-27.214235    76.916847    -206.995468    -1.185058    -3.214638    10.961067    0.724712    -4.967247    -0.567379    0.247854    2.696383    -0.604680    -3.374661    17.229071    1.324932    -0.302750    -5.764100    1.289556    8.643457    2.224886    -5.960485    -23.727047    7.418120    1.830418    0.842681    -0.038406    2.144002    12.075068    0.265671    3.026949    -9.259874    2.630269    -4.562612    21.037384    5.335652    -3.073606    -1.074446    5.737480    -1.069867    -2.937114    5.711374    0.631966    0.104310    4.733200    0.597251    -2.252810    1.764620    1.182044    5.225051    -9.777151    6.357137    0.000000    0.000000    0.000000    0.802852    6.484572    3.491473    3.003934    1.149493    -1.673732    -3.720968    -9.216606    -16.631550    0.000000    0.000000    0.000000    
-27.213114    76.915298    -206.996124    -1.181118    -3.219404    10.966966    0.724029    -4.973422    -0.572900    0.231778    2.738765    -0.609952    -3.369007    17.190670    1.321422    -0.305623    -5.745757    1.286698    8.645464    2.227955    -5.945290    -23.724415    7.452466    1.812365    0.857924    -0.059376    2.131089    12.096340    0.246365    3.037105    -9.250499    2.601505    -4.569306    21.046146    5.349362    -3.080503    -1.087595    5.760443    -1.043240    -2.950501    5.734727    0.619383    0.102963    4.731011    0.595686    -2.257443    1.783117    1.148202    5.241369    -9.790767    6.392488    0.000000    0.000000    0.000000    0.800640    6.482197    3.479702    3.000421    1.169650    -1.647634    -3.731864    -9.239260    -16.646473    0.000000    0.000000    0.000000    
-27.213722    76.914948    -206.996780    -1.186599    -3.225814    10.969077    0.725656    -4.967041    -0.575697    0.238447    2.746692    -0.612956    -3.380394    17.185719    1.314152    -0.300346    -5.745744    1.280235    8.639070    2.232696    -5.949526    -23.726065    7.430344    1.822042    0.872236    -0.052482    2.108403    12.065989    0.252222    3.038831    -9.255260    2.629256    -4.576915    21.058874    5.337463    -3.062523    -1.106488    5.758884    -1.037027    -2.943432    5.733206    0.614597    0.111313    4.729130    0.595303    -2.260512    1.792709    1.181918    5.236946    -9.795559    6.358703    0.000000    0.000000    0.000000    0.806260    6.480346    3.484411    3.008377    1.184807    -1.636132    -3.705960    -9.238303    -16.678112    0.000000    0.000000    0.000000    
-27.212572    76.915337    -206.991928    -1.183545    -3.256842    10.966719    0.728889    -4.946866    -0.576734    0.237300    2.770149    -0.613916    -3.407188    17.186987    1.316764    -0.264640    -5.766670    1.289440    8.634210    2.217477    -5.953535    -23.723446    7.416816    1.827584    0.872869    -0.054572    2.109745    12.082036    0.250958    3.036274    -9.258729    2.629356    -4.570945    21.068329    5.308508    -3.069727    -1.124956    5.781882    -1.022811    -2.913743    5.756223    0.618951    0.113047    4.769779    0.592499    -2.256817    1.778781    1.164563    5.226942    -9.793020    6.374002    0.000000    0.000000    0.000000    0.811644    6.518272    3.477247    3.000663    1.172776    -1.656831    -3.706345    -9.235785    -16.644876    0.000000    0.000000    0.000000    
-27.211874    76.915726    -206.994461    -1.180783    -3.244408    10.961904    0.724543    -4.961506    -0.571986    0.228203    2.784935    -0.608939    -3.380635    17.179159    1.315122    -0.300250    -5.773032    1.281358    8.641647    2.227286    -5.957835    -23.726810    7.427344    1.823256    0.882152    -0.064802    2.099677    12.065063    0.239755    3.032588    -9.245980    2.605822    -4.576204    21.059492    5.326051    -3.080080    -1.121041    5.791310    -1.012849    -2.917937    5.765745    0.619545    0.105038    4.754840    0.601588    -2.255357    1.789472    1.169143    5.249189    -9.789619    6.373314    0.000000    0.000000    0.000000    0.805915    6.495085    3.498223    2.999391    1.193009    -1.662023    -3.721225    -9.237696    -16.640543    0.000000    0.000000    0.000000    
-27.213251    76.914459    -206.991760    -1.183584    -3.263710    10.967204    0.723389    -4.949811    -0.576634    0.239360    2.803789    -0.613755    -3.400982    17.176413    1.311669    -0.289221    -5.784429    1.279788    8.640618    2.224257    -5.955848    -23.734213    7.422161    1.818386    0.890483    -0.068782    2.099003    12.085397    0.236761    3.037503    -9.250153    2.639423    -4.578391    21.071386    5.315519    -3.065012    -1.144175    5.785941    -1.003130    -2.927875    5.760413    0.612353    0.117088    4.780914    0.594850    -2.268422    1.776323    1.186255    5.264327    -9.798330    6.367415    0.000000    0.000000    0.000000    0.817126    6.512815    3.490247    2.997186    1.203512    -1.660044    -3.726786    -9.249297    -16.661926    0.000000    0.000000    0.000000    
-27.212032    76.914734    -206.994339    -1.184662    -3.260822    10.968410    0.728008    -4.954579    -0.577610    0.227208    2.818704    -0.614720    -3.393864    17.184195    1.310799    -0.293100    -5.816650    1.277829    8.643235    2.209391    -5.957003    -23.739618    7.454170    1.828405    0.912704    -0.087615    2.084305    12.066251    0.216203    3.036511    -9.245394    2.610158    -4.583481    21.075150    5.325735    -3.074916    -1.153666    5.801650    -0.981198    -2.933442    5.776441    0.604169    0.110814    4.769478    0.602055    -2.253109    1.785614    1.188013    5.263481    -9.797009    6.347021    0.000000    0.000000    0.000000    0.818514    6.502594    3.454854    2.989349    1.210269    -1.620414    -3.747164    -9.238970    -16.651667    0.000000    0.000000    0.000000    
-27.211872    76.915703    -206.991287    -1.184559    -3.270686    10.963952    0.726189    -4.956566    -0.574373    0.234142    2.843108    -0.611644    -3.401498    17.184080    1.307943    -0.304565    -5.838401    1.272578    8.625432    2.237013    -5.965077    -23.716417    7.393259    1.818200    0.898595    -0.085576    2.075040    12.120752    0.223092    3.062494    -9.255984    2.624772    -4.581704    21.088083    5.303751    -3.076183    -1.158264    5.803996    -0.974693    -2.982440    5.778490    0.606919    0.120087    4.783554    0.593851    -2.264468    1.782626    1.156143    5.249727    -9.794942    6.386426    0.000000    0.000000    0.000000    0.764720    6.510830    3.691043    3.109082    1.223305    -1.567002    -3.816087    -9.237703    -16.933725    0.000000    0.000000    0.000000    
-27.211508    76.913666    -206.991928    -1.187518    -3.280113    10.968549    0.734484    -4.948945    -0.579773    0.217358    2.856888    -0.617015    -3.409967    17.174601    1.307198    -0.272991    -5.839377    1.278097    8.645370    2.219708    -5.955727    -23.734152    7.401169    1.818690    0.922906    -0.093004    2.073531    12.094693    0.213292    3.047168    -9.243001    2.624315    -4.566745    21.090963    5.315176    -3.086755    -1.167214    5.804283    -0.964668    -2.968072    5.778544    0.619176    0.119430    4.781272    0.625896    -2.254632    1.805377    1.142119    5.243199    -9.819618    6.374130    0.000000    0.000000    0.000000    0.772836    6.514040    3.655636    3.099611    1.242184    -1.493671    -3.818659    -9.243722    -16.976391    0.000000    0.000000    0.000000    
-27.213680    76.914856    -206.994919    -1.190945    -3.268632    10.971558    0.730014    -4.959066    -0.584684    0.224546    2.860348    -0.621948    -3.411274    17.187151    1.309238    -0.294811    -5.868237    1.275493    8.632968    2.220619    -5.952999    -23.736952    7.409687    1.826814    0.951140    -0.104500    2.054754    12.076975    0.201954    3.060718    -9.254778    2.624624    -4.558098    21.105770    5.303066    -3.090044    -1.188509    5.809872    -0.958131    -2.941138    5.784012    0.625535    0.123123    4.765777    0.609496    -2.261144    1.813301    1.167685    5.267364    -9.818320    6.372386    0.000000    0.000000    0.000000    0.779191    6.494790    3.643125    3.098608    1.250426    -1.534691    -3.786368    -9.258724    -16.943062    0.000000    0.000000    0.000000    
-27.210093    76.916512    -206.991104    -1.182930    -3.283031    10.965500    0.726702    -4.958385    -0.578850    0.222072    2.890000    -0.615935    -3.421466    17.177912    1.305851    -0.283281    -5.870933    1.274434    8.624420    2.214668    -5.971159    -23.727859    7.381996    1.837217    0.947694    -0.093674    2.046000    12.093504    0.214144    3.066620    -9.249909    2.631050    -4.553208    21.106682    5.298579    -3.101743    -1.196458    5.799870    -0.945112    -2.969506    5.773629    0.637150    0.117381    4.786176    0.603693    -2.262753    1.804338    1.149792    5.256334    -9.804446    6.412935    0.000000    0.000000    0.000000    0.770913    6.508153    3.646305    3.100507    1.260548    -1.530298    -3.808095    -9.245549    -16.930002    0.000000    0.000000    0.000000    
-27.211088    76.913788    -206.992935    -1.188680    -3.293882    10.971824    0.736212    -4.945215    -0.584269    0.215963    2.898171    -0.621511    -3.430035    17.183222    1.299608    -0.283246    -5.891014    1.267628    8.623112    2.193027    -5.982876    -23.740997    7.416252    1.866500    0.973332    -0.115107    2.029015    12.074916    0.192244    3.071188    -9.239798    2.630844    -4.549738    21.104961    5.311512    -3.103420    -1.205799    5.792886    -0.930741    -2.994986    5.766881    0.625733    0.123547    4.789036    0.608249    -2.255176    1.808449    1.168977    5.232647    -9.822985    6.351536    0.000000    0.000000    0.000000    0.778499    6.512451    3.649372    3.101925    1.268132    -1.523111    -3.817038    -9.249019    -16.951347    0.000000    0.000000    0.000000    
